<?xml version="1.0" encoding="utf-8"?><svg xmlns="http://www.w3.org/2000/svg" xmlns:xlink="http://www.w3.org/1999/xlink"><symbol viewBox="0 0 344.96 344.96" id="check" xmlns="http://www.w3.org/2000/svg"><g data-name="Слой 2"><path d="M321.85 86.24l-40-23.11-23.1-40H212.5L172.48 0l-40 23.11H86.24l-23.11 40-40 23.1v46.21L0 172.48l23.11 40v46.21l40 23.11 23.11 40h46.21l40 23.1 40-23.11h46.21l23.11-40 40-23.11V212.5l23.11-40-23.11-40V86.24zM156.91 243.07a16.79 16.79 0 0 1-23.34 0l-50.45-50.44a16.19 16.19 0 0 1 0-22.89l13.35-13.35a16.19 16.19 0 0 1 22.89 0l25.87 25.87 80.34-80.35a16.19 16.19 0 0 1 22.89 0l13.35 13.35a16.19 16.19 0 0 1 0 22.89z" data-name="Capa 1"/></g></symbol><symbol viewBox="0 0 512 512" id="fb" xmlns="http://www.w3.org/2000/svg"><path d="M384 .1L317.6 0C243 0 194.8 49.5 194.8 126v58.1H128c-5.8 0-10.4 4.7-10.4 10.4v84.2c0 5.8 4.7 10.4 10.4 10.4h66.8v212.4c0 5.8 4.7 10.4 10.4 10.4h87.1c5.8 0 10.4-4.7 10.4-10.4V289.2h78.1c5.8 0 10.4-4.7 10.4-10.4v-84.2c0-2.8-1.1-5.4-3.1-7.4s-4.6-3.1-7.4-3.1h-78.1v-49.2c0-23.7 5.6-35.7 36.5-35.7h44.7c5.8 0 10.4-4.7 10.4-10.4V10.5C394.4 4.8 389.7.1 384 .1z"/></symbol><symbol viewBox="0 0 512 512" id="inst" xmlns="http://www.w3.org/2000/svg"><path d="M256 49.5c67.3 0 75.2.3 101.8 1.5 24.6 1.1 37.9 5.2 46.8 8.7 10.9 4 20.8 10.5 29 18.8 8.4 8.1 14.8 18 18.8 29 3.5 8.9 7.6 22.2 8.7 46.8 1.2 26.6 1.5 34.5 1.5 101.8s-.3 75.2-1.5 101.8c-1.1 24.6-5.2 37.9-8.7 46.8-8.5 22-25.8 39.3-47.8 47.8-8.9 3.5-22.2 7.6-46.8 8.7-26.6 1.2-34.5 1.5-101.8 1.5s-75.2-.3-101.8-1.5c-24.6-1.1-37.9-5.2-46.8-8.7-10.9-4-20.8-10.5-29-18.8-8.4-8.1-14.8-18-18.8-29-3.5-8.9-7.6-22.2-8.7-46.8-1.2-26.6-1.5-34.5-1.5-101.8s.3-75.2 1.5-101.8c1.1-24.6 5.2-37.9 8.7-46.8 4-10.9 10.5-20.8 18.8-29 8.1-8.4 18-14.8 29-18.8 8.9-3.5 22.2-7.6 46.8-8.7 26.6-1.3 34.5-1.5 101.8-1.5m0-45.4c-68.4 0-77 .3-103.9 1.5C125.3 6.8 107 11.1 91 17.3c-16.8 6.3-32 16.2-44.6 29.1C33.5 58.9 23.6 74.2 17.3 91c-6.2 16-10.5 34.3-11.7 61.2C4.4 179 4.1 187.6 4.1 256s.3 77 1.5 103.9c1.2 26.8 5.5 45.1 11.7 61.2 6.3 16.8 16.2 32 29.1 44.6 12.6 12.8 27.8 22.7 44.6 29 16 6.2 34.3 10.5 61.2 11.7 26.9 1.2 35.4 1.5 103.9 1.5s77-.3 103.9-1.5c26.8-1.2 45.1-5.5 61.2-11.7 33.8-13.1 60.6-39.8 73.7-73.7 6.2-16 10.5-34.3 11.7-61.2 1.2-26.9 1.5-35.4 1.5-103.9s-.3-77-1.5-103.9c-1.2-26.8-5.5-45.1-11.7-61.2-6.3-16.8-16.2-32-29.1-44.6-12.6-12.8-27.8-22.7-44.6-29.1-16-6.2-34.3-10.5-61.2-11.7-27-1-35.6-1.3-104-1.3z"/><path d="M256 126.6c-71.4 0-129.4 57.9-129.4 129.4s58 129.4 129.4 129.4 129.4-58 129.4-129.4-58-129.4-129.4-129.4zm0 213.4c-46.4 0-84-37.6-84-84s37.6-84 84-84 84 37.6 84 84-37.6 84-84 84z"/><circle cx="390.5" cy="121.5" r="30.2"/></symbol><symbol class="dsvg-inline--fa dfa-heart dfa-w-16" viewBox="0 0 512 512" id="like" xmlns="http://www.w3.org/2000/svg"><path d="M462.3 62.6C407.5 15.9 326 24.3 275.7 76.2L256 96.5l-19.7-20.3C186.1 24.3 104.5 15.9 49.7 62.6c-62.8 53.6-66.1 149.8-9.9 207.9l193.5 199.8c12.5 12.9 32.8 12.9 45.3 0l193.5-199.8c56.3-58.1 53-154.3-9.8-207.9z"/></symbol><symbol viewBox="0 0 14 14" id="tel" xmlns="http://www.w3.org/2000/svg"><path d="M13.222 9.721a8.812 8.812 0 0 1-2.776-.442.792.792 0 0 0-.794.187l-1.71 1.711a11.708 11.708 0 0 1-5.126-5.126l1.71-1.718a.747.747 0 0 0 .195-.778A8.841 8.841 0 0 1 4.278.778.78.78 0 0 0 3.5 0H.778A.78.78 0 0 0 0 .778C0 8.08 5.92 13.999 13.222 13.999a.78.78 0 0 0 .778-.777V10.5a.78.78 0 0 0-.778-.779z"/></symbol><symbol class="fsvg-inline--fa ffa-twitter ffa-w-16" viewBox="0 0 512 512" id="twitter" xmlns="http://www.w3.org/2000/svg"><path d="M459.37 151.716c.325 4.548.325 9.097.325 13.645 0 138.72-105.583 298.558-298.558 298.558-59.452 0-114.68-17.219-161.137-47.106 8.447.974 16.568 1.299 25.34 1.299 49.055 0 94.213-16.568 130.274-44.832-46.132-.975-84.792-31.188-98.112-72.772 6.498.974 12.995 1.624 19.818 1.624 9.421 0 18.843-1.3 27.614-3.573-48.081-9.747-84.143-51.98-84.143-102.985v-1.299c13.969 7.797 30.214 12.67 47.431 13.319-28.264-18.843-46.781-51.005-46.781-87.391 0-19.492 5.197-37.36 14.294-52.954 51.655 63.675 129.3 105.258 216.365 109.807-1.624-7.797-2.599-15.918-2.599-24.04 0-57.828 46.782-104.934 104.934-104.934 30.213 0 57.502 12.67 76.67 33.137 23.715-4.548 46.456-13.32 66.599-25.34-7.798 24.366-24.366 44.833-46.132 57.827 21.117-2.273 41.584-8.122 60.426-16.243-14.292 20.791-32.161 39.308-52.628 54.253z"/></symbol><symbol class="gsvg-inline--fa gfa-youtube gfa-w-18" viewBox="0 0 576 512" id="youtube" xmlns="http://www.w3.org/2000/svg"><path d="M549.655 124.083c-6.281-23.65-24.787-42.276-48.284-48.597C458.781 64 288 64 288 64S117.22 64 74.629 75.486c-23.497 6.322-42.003 24.947-48.284 48.597-11.412 42.867-11.412 132.305-11.412 132.305s0 89.438 11.412 132.305c6.281 23.65 24.787 41.5 48.284 47.821C117.22 448 288 448 288 448s170.78 0 213.371-11.486c23.497-6.321 42.003-24.171 48.284-47.821 11.412-42.867 11.412-132.305 11.412-132.305s0-89.438-11.412-132.305zm-317.51 213.508V175.185l142.739 81.205-142.739 81.201z"/></symbol></svg>